<svg width="32" height="29" viewBox="0 0 32 29" fill="none" xmlns="http://www.w3.org/2000/svg">
<path d="M8.71379 11.671C10.3642 13.5195 12.5613 13.7289 13.0972 13.446C16.5384 11.6287 14.934 6.31075 14.1776 4.88034C13.4212 3.44993 10.8755 1.08527 8.29928 2.81577C5.72308 4.54626 6.65076 9.36032 8.71379 11.671Z" fill="#47B2FF"/>
<path d="M24.3326 21.5911C22.8917 20.2375 21.6218 18.2617 21.167 17.443C18.3288 11.6575 14.399 13.8953 13.1983 16.2422C11.9975 18.5892 9.92345 20.8269 8.83185 21.5911C7.74024 22.3552 5.93909 24.4292 6.59406 26.1212C7.24902 27.8132 8.99559 28.359 12.4887 27.0491C15.9819 25.7392 17.9468 26.5033 19.5842 27.0491C21.2216 27.5949 25.0422 28.9594 26.4067 27.0491C27.7712 25.1388 26.1338 23.2831 24.3326 21.5911Z" fill="#47B2FF"/>
<path d="M28.7204 19.6185C26.8944 20.9583 24.906 20.7148 24.4867 20.3547C21.7939 18.042 24.261 13.5695 25.2125 12.4304C26.1639 11.2912 28.8849 9.66278 30.8281 11.7273C32.7712 13.7918 31.003 17.9437 28.7204 19.6185Z" fill="#47B2FF"/>
<path d="M4.26351 19.6892C6.15631 20.8615 8.10407 20.4834 8.49422 20.1036C10.9998 17.6641 8.26515 13.4925 7.24951 12.453C6.23387 11.4135 3.43792 10.0243 1.65617 12.1692C-0.125567 14.3141 1.8975 18.2238 4.26351 19.6892Z" fill="#47B2FF"/>
<path d="M17.6494 9.88002C18.2311 12.1595 19.9876 13.2771 20.5617 13.2653C24.2485 13.1893 25.2188 7.97558 25.2066 6.43434C25.1944 4.8931 24.0848 1.79141 21.1633 2.16336C18.2419 2.53531 16.9222 7.03068 17.6494 9.88002Z" fill="#47B2FF"/>
</svg>
