<svg width="46" height="48" viewBox="0 0 46 48" fill="none" xmlns="http://www.w3.org/2000/svg">
<path d="M21.2092 43.8728C18.1744 42.4758 14.7345 39.9284 11.1801 37.5675C9.16226 36.2279 7.24974 34.7592 5.77826 32.8225C4.25868 30.8234 4.12331 29.0311 5.27722 27.237C6.36939 25.5392 8.27605 24.7942 10.5994 25.2705C12.9463 25.7518 15.2209 25.8191 17.593 25.2521C21.5641 24.3018 25.1809 27.0539 25.3425 31.0691C25.433 33.3129 26.6949 34.9193 27.9362 36.5836C28.9241 37.9084 29.526 39.3168 29.1025 40.9839C28.2198 44.4487 25.9565 45.4876 21.2092 43.8728Z" fill="#47B2FF"/>
<path d="M29.1045 12.7218C28.3874 14.5477 27.5324 16.2836 25.9504 17.5537C23.6982 19.3618 21.3235 18.9369 19.8498 16.4645C17.3486 12.2672 18.7312 7.31069 22.9765 5.25022C26.2693 3.6527 28.9067 4.99517 29.4988 8.56446C29.7362 9.99017 29.5114 11.3639 29.1045 12.7218Z" fill="#47B2FF"/>
<path d="M28.5056 17.1433C29.729 14.6385 31.4646 12.059 34.7071 10.9538C37.9232 9.85785 40.2735 11.5177 40.4181 14.8961C40.6292 19.8155 36.3666 23.7087 31.4279 23.1094C28.5618 22.7617 27.323 20.5071 28.5056 17.1433Z" fill="#47B2FF"/>
<path d="M16.9065 18.7536C15.978 21.42 14.1828 23.1635 11.2774 23.5321C8.10997 23.9335 5.63441 21.1712 6.5573 18.1763C7.46919 15.2178 9.40037 12.9478 12.2057 11.5326C14.1637 10.5449 15.5584 11.0784 16.5464 13.0549C17.4671 14.8971 17.5972 16.8094 16.9065 18.7536Z" fill="#47B2FF"/>
<path d="M38.7037 32.089C38.0492 33.8451 36.8073 35.9093 34.5302 37.1478C32.3688 38.3236 30.6659 37.6318 29.9211 35.2709C29.0789 32.6053 29.3239 29.9858 30.7152 27.5936C31.9327 25.5003 35.6206 24.5096 37.7494 25.5298C39.4612 26.3486 39.9003 28.6236 38.7037 32.089Z" fill="#47B2FF"/>
</svg>
