<svg width="115" height="148" viewBox="0 0 115 148" fill="none" xmlns="http://www.w3.org/2000/svg">
<path d="M60.1343 5.5636C58.0784 3.61593 54.8026 3.7738 52.9303 5.89861C24.4352 38.2372 -16.0742 78.1377 10.8342 118.5C42.021 165.28 91.0124 143 104.834 118.5C122.771 86.7054 112.818 55.4732 60.1343 5.5636Z" fill="#F8F7F2" stroke="black" stroke-width="3"/>
<path d="M58.8041 3.69061C56.8456 1.64503 53.5147 1.77358 51.6466 3.90208C23.2172 36.2944 -16.4278 76.8694 11.547 116.5C23.5471 133.5 143.548 119 98.0469 99C-15.8764 48.9253 104.888 51.8229 58.8041 3.69061Z" fill="#DBE4E7" stroke="black" stroke-width="3"/>
<path d="M89.5469 54.5C89.5469 55.4258 89.0115 56.4084 87.9993 57.2173C86.9902 58.0238 85.6889 58.5 84.5465 58.5C84.3686 58.5 84.2435 58.4887 84.1589 58.4759C84.1581 58.4524 84.1577 58.426 84.1578 58.3965C84.1594 58.0698 84.2187 57.6689 84.3079 57.066C84.3178 56.9995 84.328 56.9306 84.3385 56.8591C84.4363 56.1938 84.5473 55.3773 84.5473 54.5C84.5473 53.5365 84.3127 52.4657 84.0745 51.523C83.9754 51.1308 83.8769 50.7643 83.7828 50.4138C83.6299 49.8446 83.4883 49.3177 83.374 48.792C83.2394 48.1736 83.1949 47.762 83.1965 47.5093C83.5559 47.5513 84.0944 47.7407 84.7819 48.1718C85.5409 48.6478 86.3467 49.3341 87.0869 50.1314C87.8261 50.9278 88.4635 51.7956 88.9075 52.609C89.3679 53.4527 89.5469 54.1033 89.5469 54.5ZM84.1763 58.6372C84.1762 58.6373 84.1756 58.6356 84.1747 58.6319C84.1759 58.6353 84.1763 58.6371 84.1763 58.6372ZM82.9511 47.5064C82.9511 47.5064 82.9517 47.5063 82.9528 47.5061L82.9511 47.5064Z" fill="#664C3B" stroke="black" stroke-width="3"/>
<path d="M111.688 75.3007C110.604 70.2989 104.078 71.6932 101.642 76.1947C82.4031 111.759 -12.4382 77.9879 9.18579 115.5C39.4972 168.083 91.0335 142 104.855 117.5C114.105 101.104 114.035 86.1272 111.688 75.3007Z" fill="#5B5851" stroke="black" stroke-width="3"/>
</svg>
