<svg width="48" height="48" viewBox="0 0 48 48" fill="none" xmlns="http://www.w3.org/2000/svg">
<circle cx="24" cy="24" r="24" fill="black"/>
<rect x="12" y="11.1284" width="24.75" height="24.75" fill="white"/>
<path d="M8.905 8.27254C9.40455 8.24249 9.90545 8.24249 10.405 8.27254H38.6725C38.8174 8.25335 38.9647 8.26693 39.1036 8.31237C39.2425 8.35781 39.3695 8.43392 39.475 8.53502C39.85 8.91752 39.715 9.48755 39.7375 9.96755C39.7375 19.5876 39.7375 29.2125 39.7375 38.8425C39.7345 38.9746 39.7036 39.1046 39.6469 39.2239C39.5902 39.3432 39.5088 39.4491 39.4083 39.5348C39.3077 39.6205 39.1902 39.684 39.0634 39.7211C38.9366 39.7582 38.8034 39.768 38.6725 39.75H9.1675C9.04658 39.7553 8.92588 39.7354 8.81299 39.6918C8.7001 39.6481 8.59747 39.5816 8.51153 39.4963C8.4256 39.4111 8.35822 39.309 8.31364 39.1965C8.26907 39.084 8.24825 38.9635 8.2525 38.8425V9.18752C8.23701 8.98276 8.29383 8.77903 8.41305 8.61184C8.53228 8.44465 8.70636 8.32461 8.905 8.27254V8.27254ZM15.3625 16.1025C15.3625 21.3525 15.3625 26.6025 15.3625 31.8525H21.2725C21.2725 29.25 21.235 26.6025 21.2725 24.0375C21.9175 24.9375 22.51 25.8825 23.17 26.775C24.2725 28.485 25.5175 30.0975 26.575 31.8375C28.555 31.89 30.535 31.8375 32.5225 31.8375C32.5225 31.59 32.56 31.3425 32.56 31.0875C32.56 26.0775 32.56 21.06 32.56 16.0875C30.595 16.0875 28.6375 16.0875 26.68 16.0875C26.68 18.705 26.68 21.3375 26.68 23.94C24.8575 21.3525 23.14 18.69 21.2725 16.125C19.3075 16.0425 17.3125 16.1025 15.3625 16.1025V16.1025Z" fill="black"/>
<path d="M12.0349 9.75H35.9719C36.5761 9.75 37.1555 9.99002 37.5828 10.4172C38.01 10.8445 38.25 11.4239 38.25 12.0281V35.9651C38.25 36.2652 38.1909 36.5623 38.0761 36.8395C37.9612 37.1167 37.7929 37.3686 37.5808 37.5808C37.3686 37.7929 37.1167 37.9612 36.8395 38.076C36.5623 38.1909 36.2652 38.25 35.9651 38.25H12.0349C11.7348 38.25 11.4377 38.1909 11.1605 38.076C10.8833 37.9612 10.6314 37.7929 10.4192 37.5808C10.2071 37.3686 10.0387 37.1167 9.92392 36.8395C9.8091 36.5623 9.75 36.2652 9.75 35.9651V12.0281C9.75179 11.4233 9.99331 10.8439 10.4216 10.4168C10.8499 9.9898 11.4301 9.75 12.0349 9.75V9.75Z" fill="black"/>
<path d="M24.0694 11.5831C16.6025 11.5831 10.5808 16.4004 10.5808 22.2487C10.5808 26.0447 13.0858 29.3687 16.8434 31.2667L15.5716 36.0167C15.5476 36.0879 15.5439 36.1643 15.5609 36.2375C15.578 36.3106 15.615 36.3776 15.6679 36.4309C15.7451 36.499 15.8444 36.5367 15.9473 36.5369C16.0327 36.5301 16.1136 36.4964 16.1786 36.4406L21.6511 32.7505C22.4589 32.862 23.2732 32.9199 24.0887 32.9239C31.5459 32.9239 37.5773 28.1066 37.5773 22.2487C37.5773 16.3908 31.5267 11.5831 24.0694 11.5831Z" fill="white"/>
<path d="M15.3014 20.5626H13.8272C13.6445 20.5679 13.4641 20.5211 13.307 20.4277C13.2372 20.384 13.1772 20.3263 13.1308 20.2583C13.0844 20.1903 13.0525 20.1135 13.0372 20.0326C13.0325 19.9813 13.0325 19.9298 13.0372 19.8785C13.0326 19.7826 13.0512 19.6869 13.0915 19.5997C13.1318 19.5125 13.1924 19.4363 13.2684 19.3775C13.4364 19.2559 13.6391 19.1916 13.8465 19.1944H18.2881C18.4723 19.1879 18.654 19.2384 18.8084 19.3389C18.8798 19.3807 18.941 19.4379 18.9877 19.5062C19.0343 19.5745 19.0652 19.6523 19.0782 19.734C19.0829 19.7821 19.0829 19.8305 19.0782 19.8785C19.0827 19.9759 19.0641 20.0729 19.0239 20.1616C18.9837 20.2504 18.9231 20.3283 18.8469 20.3891C18.6831 20.5106 18.4823 20.5719 18.2785 20.5626H16.8525V25.6304C16.8583 25.7384 16.8416 25.8463 16.8035 25.9475C16.7653 26.0487 16.7066 26.1409 16.6309 26.2181C16.5584 26.292 16.4712 26.3499 16.375 26.3881C16.2788 26.4263 16.1756 26.4438 16.0721 26.4397C15.8912 26.4449 15.7141 26.3871 15.5711 26.276C15.435 26.1675 15.3427 26.0135 15.311 25.8424C15.3015 25.772 15.3015 25.7008 15.311 25.6304L15.3014 20.5626Z" fill="black"/>
<path d="M19.5035 19.5702C19.5459 19.4116 19.6454 19.2743 19.7829 19.1848C19.9294 19.1017 20.0964 19.0617 20.2646 19.0692H20.6307C20.8093 19.0628 20.9861 19.1061 21.1414 19.1944C21.306 19.3051 21.4229 19.4736 21.469 19.6665L23.3959 25.1101C23.4459 25.2522 23.4877 25.397 23.5212 25.5438C23.5245 25.6047 23.5245 25.6658 23.5212 25.7268C23.5244 25.8207 23.5071 25.9142 23.4705 26.0007C23.4339 26.0872 23.3789 26.1647 23.3092 26.2278C23.2417 26.297 23.1607 26.3515 23.0711 26.388C22.9816 26.4245 22.8855 26.4421 22.7889 26.4397C22.6403 26.4545 22.4911 26.4189 22.3652 26.3385C22.2394 26.2581 22.1443 26.1376 22.0952 25.9966L21.6906 24.8115H19.1566L18.752 25.9966C18.7041 26.1404 18.6079 26.2632 18.4796 26.344C18.3514 26.4248 18.199 26.4586 18.0486 26.4397C17.8857 26.444 17.7261 26.3931 17.5958 26.2952C17.4688 26.1942 17.3832 26.0504 17.3549 25.8906C17.3498 25.8361 17.3498 25.7813 17.3549 25.7268C17.3384 25.6311 17.3384 25.5334 17.3549 25.4378C17.3549 25.3318 17.4224 25.2161 17.4609 25.1101L19.5035 19.5702ZM20.467 20.8324L19.5517 23.7228H21.3726L20.467 20.8324Z" fill="black"/>
<path d="M23.7418 19.8787C23.732 19.6624 23.8082 19.4511 23.9538 19.291C24.0278 19.2163 24.1166 19.158 24.2145 19.1198C24.3124 19.0817 24.4172 19.0644 24.5222 19.0693C24.7027 19.0671 24.8788 19.1248 25.0232 19.2331C25.157 19.3461 25.2459 19.5033 25.2737 19.6762C25.2832 19.7434 25.2832 19.8115 25.2737 19.8787V24.9465H27.9233C28.1069 24.9441 28.2874 24.9942 28.4435 25.0909C28.5137 25.1342 28.574 25.1918 28.6204 25.2598C28.6669 25.3279 28.6986 25.4049 28.7133 25.486C28.7133 25.486 28.7133 25.5824 28.7133 25.6305C28.7179 25.7265 28.6993 25.8221 28.659 25.9093C28.6188 25.9965 28.5581 26.0728 28.4821 26.1316C28.3141 26.2532 28.1114 26.3174 27.904 26.3146H24.6475C24.4401 26.3279 24.2339 26.2739 24.0597 26.1605C23.904 26.044 23.8002 25.871 23.7707 25.6788C23.7636 25.5729 23.7636 25.4666 23.7707 25.3607L23.7418 19.8787Z" fill="black"/>
<path d="M28.8868 19.8787C28.8811 19.6631 28.9568 19.4533 29.0988 19.291C29.2432 19.1598 29.4284 19.0823 29.6233 19.0718C29.8181 19.0612 30.0106 19.1182 30.1683 19.2331C30.305 19.3452 30.3973 19.5023 30.4284 19.6763C30.4332 19.7437 30.4332 19.8113 30.4284 19.8787V22.2392L32.866 19.4258C32.9599 19.3298 33.0597 19.2398 33.1647 19.1561C33.2636 19.0972 33.3771 19.067 33.4922 19.0693C33.6606 19.0684 33.8253 19.1188 33.9643 19.2138C34.0298 19.258 34.0858 19.3149 34.1288 19.3811C34.1719 19.4473 34.2011 19.5215 34.2148 19.5993C34.2187 19.6183 34.2187 19.638 34.2148 19.6571C34.2102 19.6794 34.2102 19.7023 34.2148 19.7245C34.2145 19.8259 34.188 19.9255 34.1378 20.0136C34.0866 20.1069 34.0252 20.194 33.9547 20.2736L32.3553 22.0272L34.2823 25.014V25.1103C34.3823 25.2484 34.4603 25.4012 34.5135 25.5632V25.6113C34.5247 25.7229 34.5086 25.8356 34.4666 25.9397C34.4247 26.0437 34.3581 26.136 34.2726 26.2087C34.1119 26.3301 33.9153 26.3946 33.7138 26.3918C33.58 26.3973 33.447 26.3673 33.3284 26.305C33.2001 26.2189 33.0944 26.1033 33.0201 25.9678L31.2281 23.0774L30.3706 23.9735V25.5824C30.3764 25.798 30.3007 26.0078 30.1586 26.1701C30.0825 26.2445 29.9919 26.3026 29.8925 26.3407C29.7931 26.3788 29.6869 26.3962 29.5805 26.3918C29.4028 26.3955 29.2292 26.3376 29.0892 26.2279C28.9531 26.1195 28.8607 25.9656 28.829 25.7944C28.8195 25.7241 28.8195 25.6527 28.829 25.5824L28.8868 19.8787Z" fill="black"/>
</svg>
