<svg width="53" height="46" viewBox="0 0 53 46" fill="none" xmlns="http://www.w3.org/2000/svg">
<path d="M13.7537 18.8357C16.4937 21.9046 20.1413 22.2523 21.0309 21.7825C26.744 18.7655 24.0804 9.93665 22.8246 7.5619C21.5689 5.18715 17.3425 1.26137 13.0655 4.13432C8.78854 7.00727 10.3287 14.9995 13.7537 18.8357Z" fill="#47B2FF"/>
<path d="M39.6844 35.305C37.2922 33.0578 35.1839 29.7776 34.4288 28.4183C29.7169 18.8133 23.1927 22.5285 21.1992 26.4248C19.2057 30.3212 15.7624 34.0364 13.9501 35.305C12.1378 36.5736 9.14757 40.0169 10.2349 42.8259C11.3223 45.6349 14.2219 46.5411 20.0212 44.3664C25.8205 42.1916 29.0826 43.4602 31.801 44.3664C34.5194 45.2725 40.8624 47.5378 43.1277 44.3664C45.393 41.1949 42.6746 38.114 39.6844 35.305Z" fill="#47B2FF"/>
<path d="M46.9684 32.0301C43.9369 34.2544 40.6357 33.8503 39.9396 33.2524C35.4691 29.4129 39.5649 21.9876 41.1445 20.0965C42.7241 18.2053 47.2414 15.5017 50.4675 18.9292C53.6935 22.3568 50.7579 29.2497 46.9684 32.0301Z" fill="#47B2FF"/>
<path d="M6.36501 32.1474C9.50742 34.0937 12.7411 33.4661 13.3888 32.8355C17.5485 28.7855 13.0085 21.8598 11.3223 20.134C9.63619 18.4082 4.99437 16.1019 2.03634 19.6628C-0.921696 23.2238 2.43698 29.7146 6.36501 32.1474Z" fill="#47B2FF"/>
<path d="M28.5883 15.8624C29.5541 19.6468 32.4702 21.5023 33.4233 21.4827C39.5441 21.3565 41.155 12.7007 41.1347 10.142C41.1145 7.5832 39.2723 2.43381 34.4221 3.05131C29.5719 3.66882 27.3811 11.132 28.5883 15.8624Z" fill="#47B2FF"/>
</svg>
