<svg width="65" height="69" viewBox="0 0 65 69" fill="none" xmlns="http://www.w3.org/2000/svg">
<path d="M29.9665 62.6107C25.6738 60.6345 20.8078 57.0312 15.78 53.6916C12.9257 51.7966 10.2204 49.719 8.13894 46.9796C5.98943 44.1518 5.79794 41.6165 7.4302 39.0786C8.97511 36.6771 11.6721 35.6232 14.9587 36.2969C18.2784 36.9778 21.4959 37.073 24.8514 36.271C30.4687 34.9267 35.5847 38.8197 35.8133 44.4993C35.9414 47.6733 37.7264 49.9455 39.4822 52.2997C40.8796 54.1738 41.7311 56.1659 41.1319 58.5242C39.8832 63.4253 36.6818 64.8948 29.9665 62.6107Z" fill="white"/>
<path d="M41.1342 18.5466C40.1199 21.1294 38.9105 23.5848 36.6726 25.3815C33.4869 27.9392 30.1277 27.3381 28.0431 23.8407C24.5051 17.9036 26.4608 10.8924 32.4659 7.97773C37.1237 5.71799 40.8545 7.61696 41.6919 12.6658C42.0278 14.6826 41.7098 16.6258 41.1342 18.5466Z" fill="white"/>
<path d="M40.2869 24.801C42.0174 21.2578 44.4725 17.609 49.0591 16.0456C53.6084 14.4954 56.933 16.8432 57.1376 21.6221C57.4362 28.5808 51.4065 34.0879 44.4206 33.2402C40.3663 32.7484 38.6141 29.5591 40.2869 24.801Z" fill="white"/>
<path d="M23.8805 27.0789C22.567 30.8506 20.0277 33.3168 15.9179 33.8381C11.4374 34.406 7.93564 30.4987 9.24109 26.2623C10.531 22.0773 13.2627 18.8664 17.2309 16.8645C20.0006 15.4673 21.9735 16.222 23.371 19.0178C24.6734 21.6237 24.8574 24.3286 23.8805 27.0789Z" fill="white"/>
<path d="M54.7133 45.9423C53.7875 48.4264 52.0308 51.3461 48.8097 53.0981C45.7523 54.7613 43.3435 53.7828 42.29 50.4432C41.0986 46.6725 41.4452 42.9673 43.4132 39.5833C45.1355 36.6222 50.3521 35.2209 53.3634 36.664C55.7847 37.8223 56.406 41.0403 54.7133 45.9423Z" fill="white"/>
</svg>
