<svg width="272" height="45" viewBox="0 0 272 45" fill="none" xmlns="http://www.w3.org/2000/svg">
<path d="M268.632 3.97803C270.684 3.97803 272 5.30894 272 7.34447V40.7348H265.225V24.6855H263.29V40.7348H256.515V7.34447C256.515 5.30894 257.87 3.97803 259.922 3.97803C261.973 3.97803 263.29 5.30894 263.29 7.34447V18.1875H265.225V7.34447C265.225 5.30894 266.58 3.97803 268.632 3.97803ZM245.869 32.6319H252.102C254.347 32.6319 255.005 34.4325 255.005 35.92C255.005 37.4467 254.308 39.169 252.102 39.169H243.043C238.01 39.169 237.081 37.9556 237.081 33.0625V11.4155C237.081 6.52243 238.01 5.34809 243.043 5.34809H251.211C253.457 5.34809 254.192 7.14874 254.192 8.63624C254.192 10.1629 253.418 11.9635 251.211 11.9635H245.869C245.172 11.9635 244.862 12.1984 244.862 13.0987V31.4967C244.862 32.397 245.172 32.6319 245.869 32.6319Z" fill="#323232"/>
<path d="M203.694 20.9399C208.863 20.1741 213.84 16.7664 214.261 12.2101H204.996C202.698 12.2101 201.779 10.602 201.779 9.0322C201.779 7.50066 202.66 5.81598 204.996 5.81598H231.491C233.827 5.81598 234.707 7.50066 234.707 9.0322C234.707 10.602 233.788 12.2101 231.491 12.2101H222.187C222.11 13.1673 221.957 14.0863 221.689 14.9669C228.658 14.6606 234.822 18.9106 235.358 27.2192H227.777C226.82 22.5863 222.838 20.0975 218.32 20.825C214.682 24.7687 209.207 27.2574 204.804 27.2574C202.507 27.2574 201.052 25.9556 201.052 23.9264C201.052 22.3948 202.162 21.1313 203.694 20.9399ZM222.149 33.5367H232.946C235.243 33.5367 236.162 35.1066 236.162 36.6764C236.162 38.3228 235.205 39.816 232.946 39.816H203.541C201.282 39.816 200.324 38.3228 200.324 36.6764C200.324 35.1066 201.243 33.5367 203.541 33.5367H214.338V28.4444C214.338 25.9556 216.214 25.1899 218.243 25.1899C220.234 25.1899 222.149 25.9939 222.149 28.4444V33.5367Z" fill="#323232"/>
<path d="M195.998 24.0544H196.189C198.487 24.0544 199.406 25.6123 199.406 27.1701C199.406 28.766 198.448 30.2859 196.189 30.2859H185.392V40.7349H177.581V30.2859H166.784C164.525 30.2859 163.568 28.766 163.568 27.1701C163.568 25.6123 164.487 24.0544 166.784 24.0544H188.111C189.336 21.9646 189.948 19.2668 189.948 15.3911V13.3013C189.948 12.7694 189.604 12.3514 188.991 12.3514H168.201C165.903 12.3514 164.831 10.6416 164.831 9.0837C164.831 7.56383 165.865 5.81598 168.201 5.81598H191.595C196.113 5.81598 197.491 7.52583 197.491 11.2495V14.8592C197.491 18.5069 196.917 21.6226 195.998 24.0544Z" fill="#323232"/>
<path d="M105.963 11.0239H107.177C109.566 11.0239 110.271 12.8637 110.271 14.4295C110.271 16.0345 109.527 17.8351 107.177 17.8351H105.963V25.0769H98.13V7.85322C98.13 5.30882 99.9707 3.97791 102.046 3.97791C104.122 3.97791 105.963 5.30882 105.963 7.85322V11.0239ZM92.7645 24.0982H77.0598C73.6525 24.0982 72.5951 22.8065 72.5951 19.714V9.4973C72.5951 6.40487 73.6525 5.15224 77.0598 5.15224H91.0805C93.352 5.15224 94.0178 6.75717 94.0178 8.16638C94.0178 9.65388 93.3128 11.2588 91.0805 11.2588H80.8978C80.3495 11.2588 80.1146 11.4937 80.1146 12.0026V17.3262C80.1146 17.8351 80.3495 18.07 80.8978 18.07H92.7645C95.036 18.07 95.6235 19.6749 95.6235 21.1233C95.6235 22.5716 94.9969 24.0982 92.7645 24.0982ZM77.1381 26.6818H100.597C105.493 26.6818 106.394 28.0127 106.394 32.7101V40.7347H98.4824V33.8061C98.4824 33.2189 98.1691 32.8666 97.5425 32.8666H77.1381C74.9449 32.8666 73.7308 31.614 73.7308 29.7742C73.7308 27.9344 74.9449 26.6818 77.1381 26.6818Z" fill="#323232"/>
<path d="M69.1286 17.6785H70.5012C72.8271 17.6785 73.5135 19.5183 73.5135 21.0841C73.5135 22.689 72.789 24.4897 70.5012 24.4897H69.1286V40.7347H61.5027V7.85322C61.5027 5.30882 63.2948 3.97791 65.3156 3.97791C67.3365 3.97791 69.1286 5.30882 69.1286 7.85322V17.6785ZM54.3343 5.26968C56.5459 5.26968 57.9185 6.48316 57.9185 9.10585V39.0515H42.2854C37.8624 39.0515 36.7567 37.4857 36.7567 33.1798V9.10585C36.7567 6.44402 38.2437 5.26968 40.4552 5.26968C42.6286 5.26968 44.0394 6.48316 44.0394 9.10585V15.1341H50.712V9.10585C50.712 6.44402 52.161 5.26968 54.3343 5.26968ZM45.107 32.5926H50.6739V21.5147H44.0394V31.5749C44.0394 32.4752 44.23 32.5926 45.107 32.5926Z" fill="#323232"/>
<path d="M32.5626 10.241H33.7446C36.0705 10.241 36.7568 12.0808 36.7568 13.6466C36.7568 15.2516 36.0323 17.0522 33.7446 17.0522H32.5626V23.1196H24.9367V7.85322C24.9367 5.30882 26.7288 3.97791 28.7496 3.97791C30.7705 3.97791 32.5626 5.30882 32.5626 7.85322V10.241ZM21.1619 8.32296V22.6107H4.9187C1.25827 22.6107 0 21.045 0 17.7568V8.32296C0 6.05257 1.37266 4.87823 3.58417 4.87823C5.68129 4.87823 6.90143 6.01343 6.97769 8.12724H14.2604C14.3367 5.97428 15.595 4.87823 17.6921 4.87823C19.9036 4.87823 21.1619 6.09172 21.1619 8.32296ZM8.04532 17.2479H14.2223V13.2943H6.97769V16.2302C6.97769 17.1305 7.16834 17.2479 8.04532 17.2479ZM10.1043 36.1156H31.6093C33.1345 36.1156 33.7827 37.3291 33.7827 38.5035C33.7827 39.5995 33.1726 40.7347 31.6093 40.7347H6.55827C3.08849 40.7347 1.22014 38.4643 1.22014 35.7242V34.8239C1.22014 32.2012 3.08849 30.4005 6.55827 30.4005H25.0511V29.5002C25.0511 29.0305 24.9367 28.8347 24.441 28.8347H3.73669C2.24964 28.8347 1.63957 27.7387 1.63957 26.5644C1.63957 25.4683 2.28777 24.294 3.73669 24.294H28.2921C31.6093 24.294 32.7913 25.3117 32.7913 28.3259V34.5499H10.1043C9.57049 34.5499 9.30359 34.863 9.30359 35.2153V35.411C9.30359 35.7633 9.57049 36.1156 10.1043 36.1156Z" fill="#323232"/>
<path d="M149.054 17.6543C146.357 20.6752 142.766 21.0175 141.89 20.555C136.266 17.5852 138.888 8.89442 140.125 6.55679C141.361 4.21917 145.521 0.354772 149.731 3.1828C153.941 6.01083 152.425 13.8781 149.054 17.6543Z" fill="#47B2FF"/>
<path d="M123.529 33.8645C125.883 31.6524 127.959 28.4235 128.702 27.0856C133.34 17.6307 139.762 21.2878 141.725 25.1232C143.687 28.9587 147.077 32.6158 148.861 33.8645C150.644 35.1133 153.588 38.5028 152.518 41.2679C151.447 44.033 148.593 44.9249 142.884 42.7842C137.176 40.6435 133.965 41.8922 131.289 42.7842C128.613 43.6762 122.369 45.9061 120.139 42.7842C117.909 39.6623 120.585 36.6296 123.529 33.8645Z" fill="#47B2FF"/>
<path d="M116.36 30.6409C119.344 32.8304 122.594 32.4326 123.279 31.8441C127.679 28.0646 123.648 20.7555 122.093 18.8939C120.538 17.0322 116.091 14.3709 112.915 17.7449C109.74 21.1188 112.63 27.9039 116.36 30.6409Z" fill="#47B2FF"/>
<path d="M156.326 30.7573C153.232 32.6732 150.049 32.0553 149.412 31.4345C145.317 27.4479 149.786 20.6305 151.446 18.9317C153.106 17.2329 157.675 14.9626 160.587 18.4678C163.498 21.9731 160.192 28.3625 156.326 30.7573Z" fill="#47B2FF"/>
<path d="M134.453 14.7277C133.503 18.4528 130.632 20.2794 129.694 20.26C123.669 20.1358 122.083 11.6154 122.103 9.09662C122.123 6.57787 123.936 1.50899 128.711 2.11684C133.485 2.72469 135.642 10.0712 134.453 14.7277Z" fill="#47B2FF"/>
</svg>
