<svg width="115" height="147" viewBox="0 0 115 147" fill="none" xmlns="http://www.w3.org/2000/svg">
<path d="M60.1343 3.5636C58.0784 1.61593 54.8026 1.7738 52.9303 3.89861C24.4352 36.2372 -16.0742 76.1377 10.8342 116.5C42.021 163.28 91.0124 141 104.834 116.5C122.771 84.7054 112.818 53.4732 60.1343 3.5636Z" fill="#FEFCEF"/>
<path d="M60.1343 3.5636C58.0784 1.61593 54.8026 1.7738 52.9303 3.89861C24.4352 36.2372 -16.0742 76.1377 10.8342 116.5C42.021 163.28 91.0124 141 104.834 116.5C122.771 84.7054 112.818 53.4732 60.1343 3.5636Z" stroke="black" stroke-width="3"/>
<path d="M60.1343 3.5636C58.0784 1.61593 54.8026 1.7738 52.9303 3.89861C24.4352 36.2372 -16.0742 76.1377 10.8342 116.5C42.021 163.28 91.0124 141 104.834 116.5C122.771 84.7054 112.818 53.4732 60.1343 3.5636Z" stroke="black" stroke-opacity="0.2" stroke-width="3"/>
<path d="M58.7573 3.69061C56.7987 1.64503 53.4678 1.77358 51.5997 3.90208C23.1703 36.2944 -16.4746 76.8694 11.5001 116.5C23.5003 133.5 143.501 119 98 99C-15.9233 48.9253 104.841 51.8229 58.7573 3.69061Z" fill="#905C5C"/>
<path d="M58.7573 3.69061C56.7987 1.64503 53.4678 1.77358 51.5997 3.90208C23.1703 36.2944 -16.4746 76.8694 11.5001 116.5C23.5003 133.5 143.501 119 98 99C-15.9233 48.9253 104.841 51.8229 58.7573 3.69061Z" stroke="black" stroke-width="3"/>
<path d="M58.7573 3.69061C56.7987 1.64503 53.4678 1.77358 51.5997 3.90208C23.1703 36.2944 -16.4746 76.8694 11.5001 116.5C23.5003 133.5 143.501 119 98 99C-15.9233 48.9253 104.841 51.8229 58.7573 3.69061Z" stroke="black" stroke-opacity="0.2" stroke-width="3"/>
<path d="M112.001 74.3007C110.917 69.2989 104.391 70.6932 101.956 75.1947C82.7165 110.759 -12.1247 76.9879 9.49927 114.5C39.8107 167.083 91.347 141 105.169 116.5C114.419 100.104 114.348 85.1272 112.001 74.3007Z" fill="#F2CE6A"/>
<path d="M112.001 74.3007C110.917 69.2989 104.391 70.6932 101.956 75.1947C82.7165 110.759 -12.1247 76.9879 9.49927 114.5C39.8107 167.083 91.347 141 105.169 116.5C114.419 100.104 114.348 85.1272 112.001 74.3007Z" stroke="black" stroke-width="3"/>
<path d="M112.001 74.3007C110.917 69.2989 104.391 70.6932 101.956 75.1947C82.7165 110.759 -12.1247 76.9879 9.49927 114.5C39.8107 167.083 91.347 141 105.169 116.5C114.419 100.104 114.348 85.1272 112.001 74.3007Z" stroke="black" stroke-opacity="0.2" stroke-width="3"/>
<path d="M89.5 54.5C89.5 55.4258 88.9646 56.4084 87.9524 57.2173C86.9434 58.0238 85.6421 58.5 84.4997 58.5C84.3217 58.5 84.1966 58.4887 84.112 58.4759C84.1112 58.4524 84.1108 58.426 84.111 58.3965C84.1126 58.0698 84.1719 57.6689 84.2611 57.066C84.2709 56.9995 84.2811 56.9306 84.2916 56.8591C84.3894 56.1938 84.5005 55.3773 84.5005 54.5C84.5005 53.5365 84.2658 52.4657 84.0276 51.523C83.9285 51.1308 83.8301 50.7643 83.7359 50.4138C83.583 49.8446 83.4415 49.3177 83.3271 48.792C83.1925 48.1736 83.1481 47.762 83.1496 47.5093C83.509 47.5513 84.0476 47.7407 84.735 48.1718C85.4941 48.6478 86.2998 49.3341 87.04 50.1314C87.7793 50.9278 88.4166 51.7956 88.8606 52.609C89.3211 53.4527 89.5 54.1033 89.5 54.5ZM84.1294 58.6372C84.1293 58.6373 84.1288 58.6356 84.1278 58.6319C84.129 58.6353 84.1295 58.6371 84.1294 58.6372ZM82.9042 47.5064C82.9042 47.5064 82.9048 47.5063 82.906 47.5061L82.9042 47.5064Z" fill="#905C5C"/>
<path d="M89.5 54.5C89.5 55.4258 88.9646 56.4084 87.9524 57.2173C86.9434 58.0238 85.6421 58.5 84.4997 58.5C84.3217 58.5 84.1966 58.4887 84.112 58.4759C84.1112 58.4524 84.1108 58.426 84.111 58.3965C84.1126 58.0698 84.1719 57.6689 84.2611 57.066C84.2709 56.9995 84.2811 56.9306 84.2916 56.8591C84.3894 56.1938 84.5005 55.3773 84.5005 54.5C84.5005 53.5365 84.2658 52.4657 84.0276 51.523C83.9285 51.1308 83.8301 50.7643 83.7359 50.4138C83.583 49.8446 83.4415 49.3177 83.3271 48.792C83.1925 48.1736 83.1481 47.762 83.1496 47.5093C83.509 47.5513 84.0476 47.7407 84.735 48.1718C85.4941 48.6478 86.2998 49.3341 87.04 50.1314C87.7793 50.9278 88.4166 51.7956 88.8606 52.609C89.3211 53.4527 89.5 54.1033 89.5 54.5ZM84.1294 58.6372C84.1293 58.6373 84.1288 58.6356 84.1278 58.6319C84.129 58.6353 84.1295 58.6371 84.1294 58.6372ZM82.9042 47.5064C82.9042 47.5064 82.9048 47.5063 82.906 47.5061L82.9042 47.5064Z" stroke="black" stroke-width="3"/>
<path d="M89.5 54.5C89.5 55.4258 88.9646 56.4084 87.9524 57.2173C86.9434 58.0238 85.6421 58.5 84.4997 58.5C84.3217 58.5 84.1966 58.4887 84.112 58.4759C84.1112 58.4524 84.1108 58.426 84.111 58.3965C84.1126 58.0698 84.1719 57.6689 84.2611 57.066C84.2709 56.9995 84.2811 56.9306 84.2916 56.8591C84.3894 56.1938 84.5005 55.3773 84.5005 54.5C84.5005 53.5365 84.2658 52.4657 84.0276 51.523C83.9285 51.1308 83.8301 50.7643 83.7359 50.4138C83.583 49.8446 83.4415 49.3177 83.3271 48.792C83.1925 48.1736 83.1481 47.762 83.1496 47.5093C83.509 47.5513 84.0476 47.7407 84.735 48.1718C85.4941 48.6478 86.2998 49.3341 87.04 50.1314C87.7793 50.9278 88.4166 51.7956 88.8606 52.609C89.3211 53.4527 89.5 54.1033 89.5 54.5ZM84.1294 58.6372C84.1293 58.6373 84.1288 58.6356 84.1278 58.6319C84.129 58.6353 84.1295 58.6371 84.1294 58.6372ZM82.9042 47.5064C82.9042 47.5064 82.9048 47.5063 82.906 47.5061L82.9042 47.5064Z" stroke="black" stroke-opacity="0.2" stroke-width="3"/>
</svg>
